<svg xmlns="http://www.w3.org/2000/svg" version="1.1" xmlns:xlink="http://www.w3.org/1999/xlink" xmlns:svgjs="http://svgjs.dev/svgjs" width="1000" height="1000"><style>
    #light-icon {
      display: inline;
    }
    #dark-icon {
      display: none;
    }

    @media (prefers-color-scheme: dark) {
      #light-icon {
        display: none;
      }
      #dark-icon {
        display: inline;
      }
    }
  </style><g id="light-icon"><svg xmlns="http://www.w3.org/2000/svg" version="1.1" xmlns:xlink="http://www.w3.org/1999/xlink" xmlns:svgjs="http://svgjs.dev/svgjs" width="1000" height="1000"><g clip-path="url(#SvgjsClipPath1068)"><rect width="1000" height="1000" fill="#ffffff"></rect><g transform="matrix(15.625,0,0,15.625,0,0)"><svg xmlns="http://www.w3.org/2000/svg" version="1.1" xmlns:xlink="http://www.w3.org/1999/xlink" xmlns:svgjs="http://svgjs.dev/svgjs" width="64" height="64"><svg width="64" height="64" viewBox="0 0 64 64" fill="none" xmlns="http://www.w3.org/2000/svg">
<rect width="64" height="64" fill="#0E0E0E"></rect>
<path d="M37.936 22.68C37.424 22.264 36.592 21.912 35.44 21.624C34.32 21.336 33.472 21.192 32.896 21.192C32.32 21.192 31.984 21.192 31.888 21.192C30.16 21.224 28.912 21.672 28.144 22.536C27.376 23.368 26.992 24.312 26.992 25.368C26.992 26.424 27.328 27.32 28 28.056C28.672 28.76 29.504 29.32 30.496 29.736C31.52 30.12 32.608 30.568 33.76 31.08C34.944 31.592 36.032 32.12 37.024 32.664C38.048 33.176 38.896 33.944 39.568 34.968C40.24 35.96 40.576 37.208 40.576 38.712C40.576 40.216 40.048 41.496 38.992 42.552C37.936 43.608 36.752 44.312 35.44 44.664C34.16 45.016 32.768 45.192 31.264 45.192C28 45.192 25.552 44.472 23.92 43.032L24.208 42.744C24.848 43.352 25.792 43.848 27.04 44.232C28.32 44.616 29.552 44.808 30.736 44.808C32.624 44.808 34.176 44.296 35.392 43.272C36.64 42.216 37.264 40.92 37.264 39.384C37.264 37.816 36.8 36.568 35.872 35.64C34.944 34.68 33.808 33.944 32.464 33.432C31.152 32.888 29.824 32.36 28.48 31.848C27.136 31.304 26 30.568 25.072 29.64C24.144 28.68 23.68 27.576 23.68 26.328C23.68 25.08 23.968 24.072 24.544 23.304C25.12 22.504 25.888 21.944 26.848 21.624C28.48 21.08 30.112 20.808 31.744 20.808C34.496 20.808 36.64 21.32 38.176 22.344L37.936 22.68Z" fill="white"></path>
</svg></svg></g></g><defs><clipPath id="SvgjsClipPath1068"><rect width="1000" height="1000" x="0" y="0" rx="500" ry="500"></rect></clipPath></defs></svg></g><g id="dark-icon"><svg xmlns="http://www.w3.org/2000/svg" version="1.1" xmlns:xlink="http://www.w3.org/1999/xlink" xmlns:svgjs="http://svgjs.dev/svgjs" width="1000" height="1000"><g clip-path="url(#SvgjsClipPath1069)"><rect width="1000" height="1000" fill="#000000"></rect><g transform="matrix(15.625,0,0,15.625,0,0)"><svg xmlns="http://www.w3.org/2000/svg" version="1.1" xmlns:xlink="http://www.w3.org/1999/xlink" xmlns:svgjs="http://svgjs.dev/svgjs" width="64" height="64"><svg width="64" height="64" viewBox="0 0 64 64" fill="none" xmlns="http://www.w3.org/2000/svg">
<rect width="64" height="64" fill="#0E0E0E"></rect>
<path d="M37.936 22.68C37.424 22.264 36.592 21.912 35.44 21.624C34.32 21.336 33.472 21.192 32.896 21.192C32.32 21.192 31.984 21.192 31.888 21.192C30.16 21.224 28.912 21.672 28.144 22.536C27.376 23.368 26.992 24.312 26.992 25.368C26.992 26.424 27.328 27.32 28 28.056C28.672 28.76 29.504 29.32 30.496 29.736C31.52 30.12 32.608 30.568 33.76 31.08C34.944 31.592 36.032 32.12 37.024 32.664C38.048 33.176 38.896 33.944 39.568 34.968C40.24 35.96 40.576 37.208 40.576 38.712C40.576 40.216 40.048 41.496 38.992 42.552C37.936 43.608 36.752 44.312 35.44 44.664C34.16 45.016 32.768 45.192 31.264 45.192C28 45.192 25.552 44.472 23.92 43.032L24.208 42.744C24.848 43.352 25.792 43.848 27.04 44.232C28.32 44.616 29.552 44.808 30.736 44.808C32.624 44.808 34.176 44.296 35.392 43.272C36.64 42.216 37.264 40.92 37.264 39.384C37.264 37.816 36.8 36.568 35.872 35.64C34.944 34.68 33.808 33.944 32.464 33.432C31.152 32.888 29.824 32.36 28.48 31.848C27.136 31.304 26 30.568 25.072 29.64C24.144 28.68 23.68 27.576 23.68 26.328C23.68 25.08 23.968 24.072 24.544 23.304C25.12 22.504 25.888 21.944 26.848 21.624C28.48 21.08 30.112 20.808 31.744 20.808C34.496 20.808 36.64 21.32 38.176 22.344L37.936 22.68Z" fill="white"></path>
</svg></svg></g></g><defs><clipPath id="SvgjsClipPath1069"><rect width="1000" height="1000" x="0" y="0" rx="500" ry="500"></rect></clipPath></defs></svg></g></svg>