<svg xmlns="http://www.w3.org/2000/svg"  viewBox="0 0 50 50" width="50px" height="50px"><path d="M 13.332031 4 C 8.1895418 4 4 8.1895418 4 13.332031 L 4 36.667969 C 4 41.810458 8.1895418 46 13.332031 46 L 36.667969 46 C 41.810458 46 46 41.809388 46 36.666016 L 46 13.332031 C 46 8.1895418 41.809388 4 36.666016 4 L 13.332031 4 z M 13.332031 6 L 36.666016 6 C 40.728643 6 44 9.2705212 44 13.332031 L 44 36.666016 C 44 40.728643 40.729479 44 36.667969 44 L 13.332031 44 C 9.2705211 44 6 40.729479 6 36.667969 L 6 13.332031 C 6 9.2705211 9.2705212 6 13.332031 6 z M 13.248047 21 L 12.029297 24.621094 L 22.251953 30 L 12.029297 35.378906 L 13.248047 39 L 25.666016 32.464844 L 25.666016 27.535156 L 13.248047 21 z"/></svg>