<?xml version="1.0" standalone="no"?>
<!DOCTYPE svg PUBLIC "-//W3C//DTD SVG 20010904//EN"
 "http://www.w3.org/TR/2001/REC-SVG-20010904/DTD/svg10.dtd">
<svg version="1.0" xmlns="http://www.w3.org/2000/svg"
 width="50.000000pt" height="50.000000pt" viewBox="0 0 50.000000 50.000000"
 preserveAspectRatio="xMidYMid meet">

<g transform="translate(0.000000,50.000000) scale(0.100000,-0.100000)"
fill="#000000" stroke="none">
<path d="M112 444 c-12 -8 -27 -25 -34 -37 -10 -20 -8 -19 25 6 35 26 39 27
166 27 81 0 131 4 131 10 0 6 -51 10 -133 10 -104 0 -137 -3 -155 -16z"/>
<path d="M99 381 c-20 -20 -29 -39 -29 -61 0 -22 9 -41 29 -61 29 -29 31 -29
141 -29 110 0 112 0 141 -29 17 -18 29 -40 29 -56 0 -16 -12 -38 -29 -56 l-29
-29 -141 0 c-87 0 -141 -4 -141 -10 0 -6 55 -10 146 -10 l146 0 34 34 c26 26
34 42 34 71 0 29 -8 45 -34 71 l-34 34 -114 0 c-107 0 -116 2 -136 23 -28 30
-28 68 1 95 21 20 34 22 155 22 81 0 132 4 132 10 0 6 -52 10 -136 10 l-136 0
-29 -29z"/>
<path d="M110 314 c0 -27 28 -34 131 -34 96 0 110 -2 143 -25 44 -30 48 -17 5
19 -29 25 -37 26 -143 26 -74 0 -116 4 -124 12 -7 7 -12 8 -12 2z"/>
<path d="M360 120 c-8 -5 -77 -10 -152 -10 -85 0 -138 -4 -138 -10 0 -6 55
-10 144 -10 118 0 147 3 160 16 25 25 16 34 -14 14z"/>
</g>
</svg>
